<svg xmlns="http://www.w3.org/2000/svg" width="288" height="90" viewBox="0 0 288 90">
<rect x="0" y="0" width="288" height="90" rx="12" fill="#0A2128"/>
<rect x="1" y="1" width="286" height="88" rx="11" fill="none" stroke="#0E4850" stroke-width="2"/>
<circle cx="32" cy="45" r="6" fill="#099EB4" opacity="0.25"/>
<circle cx="32" cy="45" r="3" fill="#099EB4"/>
<path d="M44 45 H244" stroke="#099EB4" stroke-width="1.4" opacity="0.65"/>
<path d="M44 45 H244" stroke="#5BC8DA" stroke-width="0.6" opacity="0.5"/>
<circle cx="256" cy="45" r="6" fill="#099EB4" opacity="0.25"/>
<circle cx="256" cy="45" r="3" fill="#099EB4"/>
<rect x="60"  y="38" width="18" height="14" rx="2" fill="#099EB4"/>
<rect x="84"  y="38" width="18" height="14" rx="2" fill="#5BC8DA" opacity="0.35"/>
<rect x="108" y="38" width="18" height="14" rx="2" fill="#099EB4"/>
<rect x="132" y="38" width="18" height="14" rx="2" fill="#5BC8DA" opacity="0.35"/>
<rect x="156" y="38" width="18" height="14" rx="2" fill="#099EB4"/>
<rect x="180" y="38" width="18" height="14" rx="2" fill="#5BC8DA" opacity="0.35"/>
<rect x="204" y="38" width="18" height="14" rx="2" fill="#099EB4"/>
<text x="20" y="78" font-family="-apple-system,system-ui,sans-serif" font-size="10" fill="#79C8D3" opacity="0.85">uniform packets + cover traffic</text>
</svg>